G04*
G04 #@! TF.GenerationSoftware,Altium Limited,Altium Designer,24.3.1 (35)*
G04*
G04 Layer_Color=8388736*
%FSLAX25Y25*%
%MOIN*%
G70*
G04*
G04 #@! TF.SameCoordinates,57CFF2C1-F6F0-495B-A43E-250286006A87*
G04*
G04*
G04 #@! TF.FilePolarity,Negative*
G04*
G01*
G75*
%ADD21R,0.04528X0.02362*%
%ADD22R,0.04528X0.01181*%
%ADD32R,0.02762X0.02762*%
G04:AMPARAMS|DCode=33|XSize=37.47mil|YSize=27.62mil|CornerRadius=4.36mil|HoleSize=0mil|Usage=FLASHONLY|Rotation=90.000|XOffset=0mil|YOffset=0mil|HoleType=Round|Shape=RoundedRectangle|*
%AMROUNDEDRECTD33*
21,1,0.03747,0.01890,0,0,90.0*
21,1,0.02874,0.02762,0,0,90.0*
1,1,0.00872,0.00945,0.01437*
1,1,0.00872,0.00945,-0.01437*
1,1,0.00872,-0.00945,-0.01437*
1,1,0.00872,-0.00945,0.01437*
%
%ADD33ROUNDEDRECTD33*%
G04:AMPARAMS|DCode=34|XSize=37.47mil|YSize=27.62mil|CornerRadius=4.36mil|HoleSize=0mil|Usage=FLASHONLY|Rotation=0.000|XOffset=0mil|YOffset=0mil|HoleType=Round|Shape=RoundedRectangle|*
%AMROUNDEDRECTD34*
21,1,0.03747,0.01890,0,0,0.0*
21,1,0.02874,0.02762,0,0,0.0*
1,1,0.00872,0.01437,-0.00945*
1,1,0.00872,-0.01437,-0.00945*
1,1,0.00872,-0.01437,0.00945*
1,1,0.00872,0.01437,0.00945*
%
%ADD34ROUNDEDRECTD34*%
%ADD35R,0.13786X0.13786*%
G04:AMPARAMS|DCode=36|XSize=11.87mil|YSize=39.43mil|CornerRadius=3.97mil|HoleSize=0mil|Usage=FLASHONLY|Rotation=0.000|XOffset=0mil|YOffset=0mil|HoleType=Round|Shape=RoundedRectangle|*
%AMROUNDEDRECTD36*
21,1,0.01187,0.03150,0,0,0.0*
21,1,0.00394,0.03943,0,0,0.0*
1,1,0.00794,0.00197,-0.01575*
1,1,0.00794,-0.00197,-0.01575*
1,1,0.00794,-0.00197,0.01575*
1,1,0.00794,0.00197,0.01575*
%
%ADD36ROUNDEDRECTD36*%
G04:AMPARAMS|DCode=37|XSize=11.87mil|YSize=39.43mil|CornerRadius=3.97mil|HoleSize=0mil|Usage=FLASHONLY|Rotation=90.000|XOffset=0mil|YOffset=0mil|HoleType=Round|Shape=RoundedRectangle|*
%AMROUNDEDRECTD37*
21,1,0.01187,0.03150,0,0,90.0*
21,1,0.00394,0.03943,0,0,90.0*
1,1,0.00794,0.01575,0.00197*
1,1,0.00794,0.01575,-0.00197*
1,1,0.00794,-0.01575,-0.00197*
1,1,0.00794,-0.01575,0.00197*
%
%ADD37ROUNDEDRECTD37*%
G04:AMPARAMS|DCode=38|XSize=15.75mil|YSize=43.31mil|CornerRadius=5.91mil|HoleSize=0mil|Usage=FLASHONLY|Rotation=90.000|XOffset=0mil|YOffset=0mil|HoleType=Round|Shape=RoundedRectangle|*
%AMROUNDEDRECTD38*
21,1,0.01575,0.03150,0,0,90.0*
21,1,0.00394,0.04331,0,0,90.0*
1,1,0.01181,0.01575,0.00197*
1,1,0.01181,0.01575,-0.00197*
1,1,0.01181,-0.01575,-0.00197*
1,1,0.01181,-0.01575,0.00197*
%
%ADD38ROUNDEDRECTD38*%
%ADD39R,0.04331X0.01575*%
G04:AMPARAMS|DCode=40|XSize=45.34mil|YSize=55.18mil|CornerRadius=8.2mil|HoleSize=0mil|Usage=FLASHONLY|Rotation=270.000|XOffset=0mil|YOffset=0mil|HoleType=Round|Shape=RoundedRectangle|*
%AMROUNDEDRECTD40*
21,1,0.04534,0.03878,0,0,270.0*
21,1,0.02894,0.05518,0,0,270.0*
1,1,0.01640,-0.01939,-0.01447*
1,1,0.01640,-0.01939,0.01447*
1,1,0.01640,0.01939,0.01447*
1,1,0.01640,0.01939,-0.01447*
%
%ADD40ROUNDEDRECTD40*%
%ADD41R,0.02762X0.02762*%
G04:AMPARAMS|DCode=42|XSize=35.5mil|YSize=66.99mil|CornerRadius=5.15mil|HoleSize=0mil|Usage=FLASHONLY|Rotation=180.000|XOffset=0mil|YOffset=0mil|HoleType=Round|Shape=RoundedRectangle|*
%AMROUNDEDRECTD42*
21,1,0.03550,0.05669,0,0,180.0*
21,1,0.02520,0.06699,0,0,180.0*
1,1,0.01030,-0.01260,0.02835*
1,1,0.01030,0.01260,0.02835*
1,1,0.01030,0.01260,-0.02835*
1,1,0.01030,-0.01260,-0.02835*
%
%ADD42ROUNDEDRECTD42*%
G04:AMPARAMS|DCode=43|XSize=15.75mil|YSize=27.56mil|CornerRadius=3.74mil|HoleSize=0mil|Usage=FLASHONLY|Rotation=90.000|XOffset=0mil|YOffset=0mil|HoleType=Round|Shape=RoundedRectangle|*
%AMROUNDEDRECTD43*
21,1,0.01575,0.02008,0,0,90.0*
21,1,0.00827,0.02756,0,0,90.0*
1,1,0.00748,0.01004,0.00413*
1,1,0.00748,0.01004,-0.00413*
1,1,0.00748,-0.01004,-0.00413*
1,1,0.00748,-0.01004,0.00413*
%
%ADD43ROUNDEDRECTD43*%
%ADD44R,0.02756X0.01575*%
G04:AMPARAMS|DCode=45|XSize=19.68mil|YSize=74.8mil|CornerRadius=4.33mil|HoleSize=0mil|Usage=FLASHONLY|Rotation=180.000|XOffset=0mil|YOffset=0mil|HoleType=Round|Shape=RoundedRectangle|*
%AMROUNDEDRECTD45*
21,1,0.01968,0.06614,0,0,180.0*
21,1,0.01102,0.07480,0,0,180.0*
1,1,0.00866,-0.00551,0.03307*
1,1,0.00866,0.00551,0.03307*
1,1,0.00866,0.00551,-0.03307*
1,1,0.00866,-0.00551,-0.03307*
%
%ADD45ROUNDEDRECTD45*%
G04:AMPARAMS|DCode=46|XSize=27.62mil|YSize=47.31mil|CornerRadius=6.72mil|HoleSize=0mil|Usage=FLASHONLY|Rotation=90.000|XOffset=0mil|YOffset=0mil|HoleType=Round|Shape=RoundedRectangle|*
%AMROUNDEDRECTD46*
21,1,0.02762,0.03386,0,0,90.0*
21,1,0.01417,0.04731,0,0,90.0*
1,1,0.01345,0.01693,0.00709*
1,1,0.01345,0.01693,-0.00709*
1,1,0.01345,-0.01693,-0.00709*
1,1,0.01345,-0.01693,0.00709*
%
%ADD46ROUNDEDRECTD46*%
%ADD47R,0.02368X0.02762*%
G04:AMPARAMS|DCode=48|XSize=27.62mil|YSize=47.31mil|CornerRadius=6.72mil|HoleSize=0mil|Usage=FLASHONLY|Rotation=180.000|XOffset=0mil|YOffset=0mil|HoleType=Round|Shape=RoundedRectangle|*
%AMROUNDEDRECTD48*
21,1,0.02762,0.03386,0,0,180.0*
21,1,0.01417,0.04731,0,0,180.0*
1,1,0.01345,-0.00709,0.01693*
1,1,0.01345,0.00709,0.01693*
1,1,0.01345,0.00709,-0.01693*
1,1,0.01345,-0.00709,-0.01693*
%
%ADD48ROUNDEDRECTD48*%
G04:AMPARAMS|DCode=49|XSize=74.87mil|YSize=57.15mil|CornerRadius=7.32mil|HoleSize=0mil|Usage=FLASHONLY|Rotation=270.000|XOffset=0mil|YOffset=0mil|HoleType=Round|Shape=RoundedRectangle|*
%AMROUNDEDRECTD49*
21,1,0.07487,0.04252,0,0,270.0*
21,1,0.06024,0.05715,0,0,270.0*
1,1,0.01463,-0.02126,-0.03012*
1,1,0.01463,-0.02126,0.03012*
1,1,0.01463,0.02126,0.03012*
1,1,0.01463,0.02126,-0.03012*
%
%ADD49ROUNDEDRECTD49*%
G04:AMPARAMS|DCode=50|XSize=39.37mil|YSize=82.68mil|CornerRadius=19.68mil|HoleSize=0mil|Usage=FLASHONLY|Rotation=90.000|XOffset=0mil|YOffset=0mil|HoleType=Round|Shape=RoundedRectangle|*
%AMROUNDEDRECTD50*
21,1,0.03937,0.04331,0,0,90.0*
21,1,0.00000,0.08268,0,0,90.0*
1,1,0.03937,0.02165,0.00000*
1,1,0.03937,0.02165,0.00000*
1,1,0.03937,-0.02165,0.00000*
1,1,0.03937,-0.02165,0.00000*
%
%ADD50ROUNDEDRECTD50*%
G04:AMPARAMS|DCode=51|XSize=39.37mil|YSize=70.87mil|CornerRadius=19.68mil|HoleSize=0mil|Usage=FLASHONLY|Rotation=90.000|XOffset=0mil|YOffset=0mil|HoleType=Round|Shape=RoundedRectangle|*
%AMROUNDEDRECTD51*
21,1,0.03937,0.03150,0,0,90.0*
21,1,0.00000,0.07087,0,0,90.0*
1,1,0.03937,0.01575,0.00000*
1,1,0.03937,0.01575,0.00000*
1,1,0.03937,-0.01575,0.00000*
1,1,0.03937,-0.01575,0.00000*
%
%ADD51ROUNDEDRECTD51*%
%ADD52C,0.00400*%
G04:AMPARAMS|DCode=53|XSize=63.06mil|YSize=63.06mil|CornerRadius=0mil|HoleSize=0mil|Usage=FLASHONLY|Rotation=270.000|XOffset=0mil|YOffset=0mil|HoleType=Round|Shape=Octagon|*
%AMOCTAGOND53*
4,1,8,-0.01576,-0.03153,0.01576,-0.03153,0.03153,-0.01576,0.03153,0.01576,0.01576,0.03153,-0.01576,0.03153,-0.03153,0.01576,-0.03153,-0.01576,-0.01576,-0.03153,0.0*
%
%ADD53OCTAGOND53*%

G04:AMPARAMS|DCode=54|XSize=63.06mil|YSize=63.06mil|CornerRadius=16.76mil|HoleSize=0mil|Usage=FLASHONLY|Rotation=270.000|XOffset=0mil|YOffset=0mil|HoleType=Round|Shape=RoundedRectangle|*
%AMROUNDEDRECTD54*
21,1,0.06306,0.02953,0,0,270.0*
21,1,0.02953,0.06306,0,0,270.0*
1,1,0.03353,-0.01476,-0.01476*
1,1,0.03353,-0.01476,0.01476*
1,1,0.03353,0.01476,0.01476*
1,1,0.03353,0.01476,-0.01476*
%
%ADD54ROUNDEDRECTD54*%
G36*
X79340Y31496D02*
X79378Y31485D01*
X79413Y31466D01*
X79430Y31453D01*
X79443Y31441D01*
X79443Y31441D01*
X80063Y30821D01*
X80088Y30791D01*
X80107Y30756D01*
X80118Y30718D01*
X80122Y30679D01*
Y27786D01*
X80122Y27785D01*
X80118Y27746D01*
X80107Y27709D01*
X80088Y27674D01*
X80075Y27657D01*
X80063Y27643D01*
X80063Y27643D01*
X79443Y27023D01*
X79413Y26998D01*
X79378Y26980D01*
X79340Y26968D01*
X79301Y26964D01*
X75423D01*
X75423Y26964D01*
X75384Y26968D01*
X75346Y26980D01*
X75312Y26998D01*
X75295Y27012D01*
X75281Y27023D01*
X75281Y27023D01*
X74661Y27643D01*
X74636Y27674D01*
X74617Y27709D01*
X74606Y27746D01*
X74602Y27785D01*
Y30679D01*
X74602Y30679D01*
X74606Y30718D01*
X74617Y30756D01*
X74636Y30791D01*
X74650Y30808D01*
X74661Y30821D01*
X74661Y30821D01*
X75281Y31441D01*
X75312Y31466D01*
X75346Y31485D01*
X75384Y31496D01*
X75423Y31500D01*
X79301D01*
X79301Y31500D01*
X79340Y31496D01*
D02*
G37*
D21*
X145315Y64567D02*
D03*
Y45669D02*
D03*
Y67716D02*
D03*
Y42520D02*
D03*
D22*
Y62008D02*
D03*
Y60039D02*
D03*
Y58071D02*
D03*
Y56102D02*
D03*
Y54134D02*
D03*
Y52165D02*
D03*
Y50197D02*
D03*
Y48228D02*
D03*
D32*
X24016Y94488D02*
D03*
X27953D02*
D03*
Y78347D02*
D03*
X24016D02*
D03*
Y74803D02*
D03*
X27953D02*
D03*
Y58661D02*
D03*
X24016D02*
D03*
Y55118D02*
D03*
X27953D02*
D03*
Y38189D02*
D03*
X24016D02*
D03*
Y34646D02*
D03*
X27953D02*
D03*
X28740Y17717D02*
D03*
X24803D02*
D03*
X39370Y34449D02*
D03*
X35433D02*
D03*
X40354Y54134D02*
D03*
X36417D02*
D03*
X40354Y74803D02*
D03*
X36417D02*
D03*
X70866Y69882D02*
D03*
X66929D02*
D03*
X39370Y94488D02*
D03*
X35433D02*
D03*
X123031Y62008D02*
D03*
X126969D02*
D03*
X110236Y60039D02*
D03*
X114173D02*
D03*
X79724Y89567D02*
D03*
X75787D02*
D03*
X63976Y58071D02*
D03*
X60039D02*
D03*
X82677Y36417D02*
D03*
X78740D02*
D03*
X108268Y42323D02*
D03*
X112205D02*
D03*
X108268Y65945D02*
D03*
X112205D02*
D03*
X110236Y56102D02*
D03*
X114173D02*
D03*
X108268Y69882D02*
D03*
X112205D02*
D03*
D33*
X44291Y82677D02*
D03*
X50197D02*
D03*
X24606Y90551D02*
D03*
X18701D02*
D03*
X44291Y89567D02*
D03*
X50197D02*
D03*
X24606Y70866D02*
D03*
X18701D02*
D03*
X44291Y62992D02*
D03*
X50197D02*
D03*
X24606Y82284D02*
D03*
X18701D02*
D03*
X44291Y69882D02*
D03*
X50197D02*
D03*
X24606Y62598D02*
D03*
X18701D02*
D03*
Y51181D02*
D03*
X24606D02*
D03*
X50197Y50197D02*
D03*
X44291D02*
D03*
X18701Y42126D02*
D03*
X24606D02*
D03*
X50197Y43307D02*
D03*
X44291D02*
D03*
X18701Y30512D02*
D03*
X24606D02*
D03*
X50197D02*
D03*
X44291D02*
D03*
X18701Y21654D02*
D03*
X24606D02*
D03*
X50197Y23622D02*
D03*
X44291D02*
D03*
X112205Y98425D02*
D03*
X106299D02*
D03*
Y93504D02*
D03*
X112205D02*
D03*
X118110Y50197D02*
D03*
X112205D02*
D03*
D34*
X88583Y30512D02*
D03*
Y24606D02*
D03*
X138779Y63976D02*
D03*
Y69882D02*
D03*
Y42323D02*
D03*
Y48228D02*
D03*
X112205Y73819D02*
D03*
Y79724D02*
D03*
X66929Y92520D02*
D03*
Y86614D02*
D03*
X71850Y92520D02*
D03*
Y86614D02*
D03*
X99410Y28543D02*
D03*
Y34449D02*
D03*
X118110Y40354D02*
D03*
Y46260D02*
D03*
D35*
X90551Y56102D02*
D03*
D36*
X79528Y69882D02*
D03*
X81102D02*
D03*
X82677D02*
D03*
X84252D02*
D03*
X85827D02*
D03*
X87402D02*
D03*
X88976D02*
D03*
X90551D02*
D03*
X92126D02*
D03*
X93701D02*
D03*
X95276D02*
D03*
X96850D02*
D03*
X98425D02*
D03*
X100000D02*
D03*
X101575D02*
D03*
Y42323D02*
D03*
X100000D02*
D03*
X98425D02*
D03*
X96850D02*
D03*
X95276D02*
D03*
X93701D02*
D03*
X92126D02*
D03*
X90551D02*
D03*
X88976D02*
D03*
X87402D02*
D03*
X85827D02*
D03*
X84252D02*
D03*
X82677D02*
D03*
X81102D02*
D03*
X79528D02*
D03*
D37*
X104331Y67126D02*
D03*
Y65551D02*
D03*
Y63976D02*
D03*
Y62402D02*
D03*
Y60827D02*
D03*
Y59252D02*
D03*
Y57677D02*
D03*
Y56102D02*
D03*
Y54527D02*
D03*
Y52953D02*
D03*
Y51378D02*
D03*
Y49803D02*
D03*
Y48228D02*
D03*
Y46654D02*
D03*
Y45079D02*
D03*
D38*
X76772D02*
D03*
Y46654D02*
D03*
Y48228D02*
D03*
Y49803D02*
D03*
Y51378D02*
D03*
Y52953D02*
D03*
Y54527D02*
D03*
Y56102D02*
D03*
Y57677D02*
D03*
Y59252D02*
D03*
Y60827D02*
D03*
Y62402D02*
D03*
Y63976D02*
D03*
Y65551D02*
D03*
D39*
Y67126D02*
D03*
D40*
X77362Y21949D02*
D03*
X68307D02*
D03*
Y29232D02*
D03*
D41*
X83661Y87598D02*
D03*
Y83661D02*
D03*
X87598D02*
D03*
Y87598D02*
D03*
X71850Y43307D02*
D03*
Y39370D02*
D03*
X108268Y75787D02*
D03*
Y79724D02*
D03*
X134843Y45276D02*
D03*
Y41339D02*
D03*
X82677Y24606D02*
D03*
Y20669D02*
D03*
Y28543D02*
D03*
Y32480D02*
D03*
X92520Y36417D02*
D03*
Y32480D02*
D03*
D42*
X104331Y86614D02*
D03*
X98032D02*
D03*
D43*
X78937Y77756D02*
D03*
Y79724D02*
D03*
Y81693D02*
D03*
Y83661D02*
D03*
X68701Y77756D02*
D03*
Y79724D02*
D03*
Y81693D02*
D03*
D44*
Y83661D02*
D03*
D45*
X73819Y80709D02*
D03*
D46*
X39567Y70669D02*
D03*
Y66929D02*
D03*
Y63189D02*
D03*
X29331D02*
D03*
Y66929D02*
D03*
Y70669D02*
D03*
X39567Y90354D02*
D03*
Y86614D02*
D03*
Y82874D02*
D03*
X29331D02*
D03*
Y86614D02*
D03*
Y90354D02*
D03*
Y30315D02*
D03*
Y26575D02*
D03*
Y22835D02*
D03*
X39567D02*
D03*
Y26575D02*
D03*
Y30315D02*
D03*
X29331Y50000D02*
D03*
Y46260D02*
D03*
Y42520D02*
D03*
X39567D02*
D03*
Y46260D02*
D03*
Y50000D02*
D03*
D47*
X97244Y79724D02*
D03*
X101575D02*
D03*
Y75787D02*
D03*
X97244D02*
D03*
D48*
X123228Y46063D02*
D03*
X126969D02*
D03*
X130709D02*
D03*
Y56299D02*
D03*
X123228D02*
D03*
D49*
X47933Y99410D02*
D03*
X64272D02*
D03*
X125295Y24606D02*
D03*
X108957D02*
D03*
D50*
X147579Y72126D02*
D03*
Y38110D02*
D03*
D51*
X164035Y72126D02*
D03*
Y38110D02*
D03*
D52*
X149547Y66496D02*
D03*
Y43740D02*
D03*
D53*
X11811Y25118D02*
D03*
Y35118D02*
D03*
Y55118D02*
D03*
Y65118D02*
D03*
Y75118D02*
D03*
Y85118D02*
D03*
Y45118D02*
D03*
Y15118D02*
D03*
D54*
Y95118D02*
D03*
M02*
