M48
;Layer_Color=9474304
;FILE_FORMAT=2:5
INCH,LZ
;TYPE=PLATED
T01F00S00C0.01181
T02F00S00C0.01200
T04F00S00C0.03543
%
T01
X0031496Y0017717
X0024606Y0026575
X0030709Y0036614
X0042323Y0034449
X0043307Y0054134
X0030699Y0056693
X0024606Y0066929
X0030699Y0076772
X0043307Y0074803
X0042323Y0094488
X0030709
X0024606Y0086614
Y004626
X0057087Y0058071
X0066929Y0057299
X0063976Y0069882
X0076772
X0075787Y008563
X008563Y0090551
X0094488Y0083661
Y0080709
X0104331Y0079724
Y0076772
Y0069882
X0096622Y0066698
X0086221Y0060433
X0074803Y0041339
Y0036417
X0095472Y0034449
X009252Y0029528
X0121063Y0024606
X0115157Y0042323
X0126969
X0142717
Y0067913
X0123031Y0064961
X0126969Y0059055
X0117126Y0058071
X0115157Y0066929
Y0090551
Y0101378
X0108268Y0083661
T02
X0086221Y0051772
X0090551
X0094882
Y0056102
X0090551
X0086221
X0090551Y0060433
X0094882
T04
X0011811Y0015118
Y0025118
Y0035118
Y0045118
Y0055118
Y0065118
Y0075118
Y0085118
Y0095118
M30
