G04*
G04 #@! TF.GenerationSoftware,Altium Limited,Altium Designer,24.3.1 (35)*
G04*
G04 Layer_Physical_Order=1*
G04 Layer_Color=255*
%FSLAX25Y25*%
%MOIN*%
G70*
G04*
G04 #@! TF.SameCoordinates,57CFF2C1-F6F0-495B-A43E-250286006A87*
G04*
G04*
G04 #@! TF.FilePolarity,Positive*
G04*
G01*
G75*
%ADD13R,0.02362X0.02362*%
G04:AMPARAMS|DCode=14|XSize=33.47mil|YSize=23.62mil|CornerRadius=2.36mil|HoleSize=0mil|Usage=FLASHONLY|Rotation=90.000|XOffset=0mil|YOffset=0mil|HoleType=Round|Shape=RoundedRectangle|*
%AMROUNDEDRECTD14*
21,1,0.03347,0.01890,0,0,90.0*
21,1,0.02874,0.02362,0,0,90.0*
1,1,0.00472,0.00945,0.01437*
1,1,0.00472,0.00945,-0.01437*
1,1,0.00472,-0.00945,-0.01437*
1,1,0.00472,-0.00945,0.01437*
%
%ADD14ROUNDEDRECTD14*%
G04:AMPARAMS|DCode=15|XSize=33.47mil|YSize=23.62mil|CornerRadius=2.36mil|HoleSize=0mil|Usage=FLASHONLY|Rotation=0.000|XOffset=0mil|YOffset=0mil|HoleType=Round|Shape=RoundedRectangle|*
%AMROUNDEDRECTD15*
21,1,0.03347,0.01890,0,0,0.0*
21,1,0.02874,0.02362,0,0,0.0*
1,1,0.00472,0.01437,-0.00945*
1,1,0.00472,-0.01437,-0.00945*
1,1,0.00472,-0.01437,0.00945*
1,1,0.00472,0.01437,0.00945*
%
%ADD15ROUNDEDRECTD15*%
%ADD16R,0.13386X0.13386*%
G04:AMPARAMS|DCode=17|XSize=7.87mil|YSize=35.43mil|CornerRadius=1.97mil|HoleSize=0mil|Usage=FLASHONLY|Rotation=0.000|XOffset=0mil|YOffset=0mil|HoleType=Round|Shape=RoundedRectangle|*
%AMROUNDEDRECTD17*
21,1,0.00787,0.03150,0,0,0.0*
21,1,0.00394,0.03543,0,0,0.0*
1,1,0.00394,0.00197,-0.01575*
1,1,0.00394,-0.00197,-0.01575*
1,1,0.00394,-0.00197,0.01575*
1,1,0.00394,0.00197,0.01575*
%
%ADD17ROUNDEDRECTD17*%
G04:AMPARAMS|DCode=18|XSize=7.87mil|YSize=35.43mil|CornerRadius=1.97mil|HoleSize=0mil|Usage=FLASHONLY|Rotation=90.000|XOffset=0mil|YOffset=0mil|HoleType=Round|Shape=RoundedRectangle|*
%AMROUNDEDRECTD18*
21,1,0.00787,0.03150,0,0,90.0*
21,1,0.00394,0.03543,0,0,90.0*
1,1,0.00394,0.01575,0.00197*
1,1,0.00394,0.01575,-0.00197*
1,1,0.00394,-0.01575,-0.00197*
1,1,0.00394,-0.01575,0.00197*
%
%ADD18ROUNDEDRECTD18*%
%ADD19R,0.03543X0.00787*%
G04:AMPARAMS|DCode=20|XSize=41.34mil|YSize=51.18mil|CornerRadius=6.2mil|HoleSize=0mil|Usage=FLASHONLY|Rotation=270.000|XOffset=0mil|YOffset=0mil|HoleType=Round|Shape=RoundedRectangle|*
%AMROUNDEDRECTD20*
21,1,0.04134,0.03878,0,0,270.0*
21,1,0.02894,0.05118,0,0,270.0*
1,1,0.01240,-0.01939,-0.01447*
1,1,0.01240,-0.01939,0.01447*
1,1,0.01240,0.01939,0.01447*
1,1,0.01240,0.01939,-0.01447*
%
%ADD20ROUNDEDRECTD20*%
%ADD21R,0.04528X0.02362*%
%ADD22R,0.04528X0.01181*%
%ADD23R,0.02362X0.02362*%
G04:AMPARAMS|DCode=24|XSize=31.5mil|YSize=62.99mil|CornerRadius=3.15mil|HoleSize=0mil|Usage=FLASHONLY|Rotation=180.000|XOffset=0mil|YOffset=0mil|HoleType=Round|Shape=RoundedRectangle|*
%AMROUNDEDRECTD24*
21,1,0.03150,0.05669,0,0,180.0*
21,1,0.02520,0.06299,0,0,180.0*
1,1,0.00630,-0.01260,0.02835*
1,1,0.00630,0.01260,0.02835*
1,1,0.00630,0.01260,-0.02835*
1,1,0.00630,-0.01260,-0.02835*
%
%ADD24ROUNDEDRECTD24*%
G04:AMPARAMS|DCode=25|XSize=11.81mil|YSize=23.62mil|CornerRadius=1.77mil|HoleSize=0mil|Usage=FLASHONLY|Rotation=90.000|XOffset=0mil|YOffset=0mil|HoleType=Round|Shape=RoundedRectangle|*
%AMROUNDEDRECTD25*
21,1,0.01181,0.02008,0,0,90.0*
21,1,0.00827,0.02362,0,0,90.0*
1,1,0.00354,0.01004,0.00413*
1,1,0.00354,0.01004,-0.00413*
1,1,0.00354,-0.01004,-0.00413*
1,1,0.00354,-0.01004,0.00413*
%
%ADD25ROUNDEDRECTD25*%
%ADD26R,0.02362X0.01181*%
G04:AMPARAMS|DCode=27|XSize=15.75mil|YSize=70.87mil|CornerRadius=2.36mil|HoleSize=0mil|Usage=FLASHONLY|Rotation=180.000|XOffset=0mil|YOffset=0mil|HoleType=Round|Shape=RoundedRectangle|*
%AMROUNDEDRECTD27*
21,1,0.01575,0.06614,0,0,180.0*
21,1,0.01102,0.07087,0,0,180.0*
1,1,0.00472,-0.00551,0.03307*
1,1,0.00472,0.00551,0.03307*
1,1,0.00472,0.00551,-0.03307*
1,1,0.00472,-0.00551,-0.03307*
%
%ADD27ROUNDEDRECTD27*%
G04:AMPARAMS|DCode=28|XSize=23.62mil|YSize=43.31mil|CornerRadius=4.72mil|HoleSize=0mil|Usage=FLASHONLY|Rotation=90.000|XOffset=0mil|YOffset=0mil|HoleType=Round|Shape=RoundedRectangle|*
%AMROUNDEDRECTD28*
21,1,0.02362,0.03386,0,0,90.0*
21,1,0.01417,0.04331,0,0,90.0*
1,1,0.00945,0.01693,0.00709*
1,1,0.00945,0.01693,-0.00709*
1,1,0.00945,-0.01693,-0.00709*
1,1,0.00945,-0.01693,0.00709*
%
%ADD28ROUNDEDRECTD28*%
%ADD29R,0.01968X0.02362*%
G04:AMPARAMS|DCode=30|XSize=23.62mil|YSize=43.31mil|CornerRadius=4.72mil|HoleSize=0mil|Usage=FLASHONLY|Rotation=180.000|XOffset=0mil|YOffset=0mil|HoleType=Round|Shape=RoundedRectangle|*
%AMROUNDEDRECTD30*
21,1,0.02362,0.03386,0,0,180.0*
21,1,0.01417,0.04331,0,0,180.0*
1,1,0.00945,-0.00709,0.01693*
1,1,0.00945,0.00709,0.01693*
1,1,0.00945,0.00709,-0.01693*
1,1,0.00945,-0.00709,-0.01693*
%
%ADD30ROUNDEDRECTD30*%
G04:AMPARAMS|DCode=31|XSize=70.87mil|YSize=53.15mil|CornerRadius=5.32mil|HoleSize=0mil|Usage=FLASHONLY|Rotation=270.000|XOffset=0mil|YOffset=0mil|HoleType=Round|Shape=RoundedRectangle|*
%AMROUNDEDRECTD31*
21,1,0.07087,0.04252,0,0,270.0*
21,1,0.06024,0.05315,0,0,270.0*
1,1,0.01063,-0.02126,-0.03012*
1,1,0.01063,-0.02126,0.03012*
1,1,0.01063,0.02126,0.03012*
1,1,0.01063,0.02126,-0.03012*
%
%ADD31ROUNDEDRECTD31*%
G04:AMPARAMS|DCode=50|XSize=39.37mil|YSize=82.68mil|CornerRadius=19.68mil|HoleSize=0mil|Usage=FLASHONLY|Rotation=90.000|XOffset=0mil|YOffset=0mil|HoleType=Round|Shape=RoundedRectangle|*
%AMROUNDEDRECTD50*
21,1,0.03937,0.04331,0,0,90.0*
21,1,0.00000,0.08268,0,0,90.0*
1,1,0.03937,0.02165,0.00000*
1,1,0.03937,0.02165,0.00000*
1,1,0.03937,-0.02165,0.00000*
1,1,0.03937,-0.02165,0.00000*
%
%ADD50ROUNDEDRECTD50*%
G04:AMPARAMS|DCode=51|XSize=39.37mil|YSize=70.87mil|CornerRadius=19.68mil|HoleSize=0mil|Usage=FLASHONLY|Rotation=90.000|XOffset=0mil|YOffset=0mil|HoleType=Round|Shape=RoundedRectangle|*
%AMROUNDEDRECTD51*
21,1,0.03937,0.03150,0,0,90.0*
21,1,0.00000,0.07087,0,0,90.0*
1,1,0.03937,0.01575,0.00000*
1,1,0.03937,0.01575,0.00000*
1,1,0.03937,-0.01575,0.00000*
1,1,0.03937,-0.01575,0.00000*
%
%ADD51ROUNDEDRECTD51*%
%AMCUSTOMSHAPE55*
4,1,8,-0.01939,0.02067,-0.02559,0.01447,-0.02559,-0.01447,-0.01939,-0.02067,0.01939,-0.02067,0.02559,-0.01447,0.02559,0.01447,0.01939,0.02067,-0.01939,0.02067,0.0*%
%ADD55CUSTOMSHAPE55*%

%ADD56C,0.01575*%
%ADD57C,0.01181*%
%ADD58C,0.00800*%
G04:AMPARAMS|DCode=59|XSize=59.06mil|YSize=59.06mil|CornerRadius=0mil|HoleSize=0mil|Usage=FLASHONLY|Rotation=270.000|XOffset=0mil|YOffset=0mil|HoleType=Round|Shape=Octagon|*
%AMOCTAGOND59*
4,1,8,-0.01476,-0.02953,0.01476,-0.02953,0.02953,-0.01476,0.02953,0.01476,0.01476,0.02953,-0.01476,0.02953,-0.02953,0.01476,-0.02953,-0.01476,-0.01476,-0.02953,0.0*
%
%ADD59OCTAGOND59*%

G04:AMPARAMS|DCode=60|XSize=59.06mil|YSize=59.06mil|CornerRadius=14.76mil|HoleSize=0mil|Usage=FLASHONLY|Rotation=270.000|XOffset=0mil|YOffset=0mil|HoleType=Round|Shape=RoundedRectangle|*
%AMROUNDEDRECTD60*
21,1,0.05906,0.02953,0,0,270.0*
21,1,0.02953,0.05906,0,0,270.0*
1,1,0.02953,-0.01476,-0.01476*
1,1,0.02953,-0.01476,0.01476*
1,1,0.02953,0.01476,0.01476*
1,1,0.02953,0.01476,-0.01476*
%
%ADD60ROUNDEDRECTD60*%
%ADD61C,0.02756*%
%ADD62C,0.02400*%
%ADD63C,0.02362*%
D13*
X24016Y94488D02*
D03*
X27953D02*
D03*
Y78347D02*
D03*
X24016D02*
D03*
Y74803D02*
D03*
X27953D02*
D03*
Y58661D02*
D03*
X24016D02*
D03*
Y55118D02*
D03*
X27953D02*
D03*
Y38189D02*
D03*
X24016D02*
D03*
Y34646D02*
D03*
X27953D02*
D03*
X28740Y17717D02*
D03*
X24803D02*
D03*
X39370Y34449D02*
D03*
X35433D02*
D03*
X40354Y54134D02*
D03*
X36417D02*
D03*
X40354Y74803D02*
D03*
X36417D02*
D03*
X70866Y69882D02*
D03*
X66929D02*
D03*
X39370Y94488D02*
D03*
X35433D02*
D03*
X123031Y62008D02*
D03*
X126969D02*
D03*
X110236Y60039D02*
D03*
X114173D02*
D03*
X79724Y89567D02*
D03*
X75787D02*
D03*
X63976Y58071D02*
D03*
X60039D02*
D03*
X82677Y36417D02*
D03*
X78740D02*
D03*
X108268Y42323D02*
D03*
X112205D02*
D03*
X108268Y65945D02*
D03*
X112205D02*
D03*
X110236Y56102D02*
D03*
X114173D02*
D03*
X108268Y69882D02*
D03*
X112205D02*
D03*
D14*
X44291Y82677D02*
D03*
X50197D02*
D03*
X24606Y90551D02*
D03*
X18701D02*
D03*
X44291Y89567D02*
D03*
X50197D02*
D03*
X24606Y70866D02*
D03*
X18701D02*
D03*
X44291Y62992D02*
D03*
X50197D02*
D03*
X24606Y82284D02*
D03*
X18701D02*
D03*
X44291Y69882D02*
D03*
X50197D02*
D03*
X24606Y62598D02*
D03*
X18701D02*
D03*
Y51181D02*
D03*
X24606D02*
D03*
X50197Y50197D02*
D03*
X44291D02*
D03*
X18701Y42126D02*
D03*
X24606D02*
D03*
X50197Y43307D02*
D03*
X44291D02*
D03*
X18701Y30512D02*
D03*
X24606D02*
D03*
X50197D02*
D03*
X44291D02*
D03*
X18701Y21654D02*
D03*
X24606D02*
D03*
X50197Y23622D02*
D03*
X44291D02*
D03*
X112205Y98425D02*
D03*
X106299D02*
D03*
Y93504D02*
D03*
X112205D02*
D03*
X118110Y50197D02*
D03*
X112205D02*
D03*
D15*
X88583Y30512D02*
D03*
Y24606D02*
D03*
X138779Y63976D02*
D03*
Y69882D02*
D03*
Y42323D02*
D03*
Y48228D02*
D03*
X112205Y73819D02*
D03*
Y79724D02*
D03*
X66929Y92520D02*
D03*
Y86614D02*
D03*
X71850Y92520D02*
D03*
Y86614D02*
D03*
X99410Y28543D02*
D03*
Y34449D02*
D03*
X118110Y40354D02*
D03*
Y46260D02*
D03*
D16*
X90551Y56102D02*
D03*
D17*
X79528Y69882D02*
D03*
X81102D02*
D03*
X82677D02*
D03*
X84252D02*
D03*
X85827D02*
D03*
X87402D02*
D03*
X88976D02*
D03*
X90551D02*
D03*
X92126D02*
D03*
X93701D02*
D03*
X95276D02*
D03*
X96850D02*
D03*
X98425D02*
D03*
X100000D02*
D03*
X101575D02*
D03*
Y42323D02*
D03*
X100000D02*
D03*
X98425D02*
D03*
X96850D02*
D03*
X95276D02*
D03*
X93701D02*
D03*
X92126D02*
D03*
X90551D02*
D03*
X88976D02*
D03*
X87402D02*
D03*
X85827D02*
D03*
X84252D02*
D03*
X82677D02*
D03*
X81102D02*
D03*
X79528D02*
D03*
D18*
X104331Y67126D02*
D03*
Y65551D02*
D03*
Y63976D02*
D03*
Y62402D02*
D03*
Y60827D02*
D03*
Y59252D02*
D03*
Y57677D02*
D03*
Y56102D02*
D03*
Y54527D02*
D03*
Y52953D02*
D03*
Y51378D02*
D03*
Y49803D02*
D03*
Y48228D02*
D03*
Y46654D02*
D03*
Y45079D02*
D03*
X76772D02*
D03*
Y46654D02*
D03*
Y48228D02*
D03*
Y49803D02*
D03*
Y51378D02*
D03*
Y52953D02*
D03*
Y54527D02*
D03*
Y56102D02*
D03*
Y57677D02*
D03*
Y59252D02*
D03*
Y60827D02*
D03*
Y62402D02*
D03*
Y63976D02*
D03*
Y65551D02*
D03*
D19*
Y67126D02*
D03*
D20*
X77362Y21949D02*
D03*
X68307D02*
D03*
Y29232D02*
D03*
D21*
X145315Y64567D02*
D03*
Y45669D02*
D03*
Y67716D02*
D03*
Y42520D02*
D03*
D22*
Y62008D02*
D03*
Y60039D02*
D03*
Y58071D02*
D03*
Y56102D02*
D03*
Y54134D02*
D03*
Y52165D02*
D03*
Y50197D02*
D03*
Y48228D02*
D03*
D23*
X83661Y87598D02*
D03*
Y83661D02*
D03*
X87598D02*
D03*
Y87598D02*
D03*
X71850Y43307D02*
D03*
Y39370D02*
D03*
X108268Y75787D02*
D03*
Y79724D02*
D03*
X134843Y45276D02*
D03*
Y41339D02*
D03*
X82677Y24606D02*
D03*
Y20669D02*
D03*
Y28543D02*
D03*
Y32480D02*
D03*
X92520Y36417D02*
D03*
Y32480D02*
D03*
D24*
X104331Y86614D02*
D03*
X98032D02*
D03*
D25*
X78937Y77756D02*
D03*
Y79724D02*
D03*
Y81693D02*
D03*
Y83661D02*
D03*
X68701Y77756D02*
D03*
Y79724D02*
D03*
Y81693D02*
D03*
D26*
Y83661D02*
D03*
D27*
X73819Y80709D02*
D03*
D28*
X39567Y70669D02*
D03*
Y66929D02*
D03*
Y63189D02*
D03*
X29331D02*
D03*
Y66929D02*
D03*
Y70669D02*
D03*
X39567Y90354D02*
D03*
Y86614D02*
D03*
Y82874D02*
D03*
X29331D02*
D03*
Y86614D02*
D03*
Y90354D02*
D03*
Y30315D02*
D03*
Y26575D02*
D03*
Y22835D02*
D03*
X39567D02*
D03*
Y26575D02*
D03*
Y30315D02*
D03*
X29331Y50000D02*
D03*
Y46260D02*
D03*
Y42520D02*
D03*
X39567D02*
D03*
Y46260D02*
D03*
Y50000D02*
D03*
D29*
X97244Y79724D02*
D03*
X101575D02*
D03*
Y75787D02*
D03*
X97244D02*
D03*
D30*
X123228Y46063D02*
D03*
X126969D02*
D03*
X130709D02*
D03*
Y56299D02*
D03*
X123228D02*
D03*
D31*
X47933Y99410D02*
D03*
X64272D02*
D03*
X125295Y24606D02*
D03*
X108957D02*
D03*
D50*
X147579Y72126D02*
D03*
Y38110D02*
D03*
D51*
X164035Y72126D02*
D03*
Y38110D02*
D03*
D55*
X77362Y29232D02*
D03*
D56*
X24803Y17717D02*
Y21457D01*
X24606Y21654D02*
X24803Y21457D01*
X24606Y30512D02*
Y34055D01*
X24016Y34646D02*
X24606Y34055D01*
X25000Y41732D02*
X25787Y42520D01*
X24606Y38780D02*
Y42126D01*
X24016Y38189D02*
X24606Y38780D01*
Y51181D02*
Y54528D01*
X24016Y55118D02*
X24606Y54528D01*
X24902Y62303D02*
X25787Y63189D01*
X24606Y59252D02*
Y62598D01*
X24016Y58661D02*
X24606Y59252D01*
Y70866D02*
Y74213D01*
X24016Y74803D02*
X24606Y74213D01*
Y81693D02*
X25787Y82874D01*
X24606Y81693D02*
Y82284D01*
Y78937D02*
Y81693D01*
X24016Y78347D02*
X24606Y78937D01*
X24016Y94488D02*
X24606Y93898D01*
Y90551D02*
Y93898D01*
X27953Y94488D02*
X30709D01*
X28731Y74803D02*
X30699Y76772D01*
X27953Y74803D02*
X28731D01*
X29124Y78347D02*
X30699Y76772D01*
X27953Y78347D02*
X29124D01*
X29124Y55118D02*
X30699Y56693D01*
X27953Y55118D02*
X29124D01*
X28731Y58661D02*
X30699Y56693D01*
X27953Y58661D02*
X28731D01*
X28740Y34646D02*
X30709Y36614D01*
X27953Y34646D02*
X28740D01*
X29134Y38189D02*
X30709Y36614D01*
X27953Y38189D02*
X29134D01*
X28740Y17717D02*
X31496D01*
X12835Y42126D02*
X18701D01*
X9843Y45118D02*
X12835Y42126D01*
X9843Y65118D02*
X12362Y62598D01*
X18701D01*
X12677Y82284D02*
X18701D01*
X9843Y85118D02*
X12677Y82284D01*
X33465Y60039D02*
Y79724D01*
X24606Y46260D02*
X29331D01*
X24606Y26575D02*
X29331D01*
X35433Y34449D02*
Y42126D01*
X33465Y44094D02*
Y60039D01*
Y44094D02*
X35433Y42126D01*
Y87598D02*
X36417Y86614D01*
X35433Y87598D02*
Y94488D01*
X92520Y29528D02*
Y32480D01*
X74803Y33465D02*
X81693D01*
X82677Y32480D01*
X70866Y33465D02*
X74803D01*
X64961D02*
X70866D01*
X68307Y30906D02*
X70866Y33465D01*
X68307Y29232D02*
Y30906D01*
X72835Y17717D02*
X79724D01*
X65945D02*
X72835D01*
X77067Y21949D01*
X77362D01*
X79724Y17717D02*
X82677Y20669D01*
X63976Y19685D02*
X65945Y17717D01*
X63976Y19685D02*
Y32480D01*
X64961Y33465D01*
Y33465D01*
X74803D02*
Y36417D01*
X122539Y65453D02*
X123031Y64961D01*
X121063Y66929D02*
Y84646D01*
X115157Y90551D02*
X121063Y84646D01*
Y66929D02*
X122539Y65453D01*
X111024Y105512D02*
X115157Y101378D01*
Y101378D02*
Y101378D01*
X88386Y105512D02*
X111024D01*
X97244Y79724D02*
Y85827D01*
X98032Y86614D01*
X94488Y80709D02*
X95472Y79724D01*
X35827Y74213D02*
X36417Y74803D01*
X35827Y68504D02*
X37402Y66929D01*
X35827Y68504D02*
Y74213D01*
Y46850D02*
Y53543D01*
Y46850D02*
X36417Y46260D01*
X35827Y53543D02*
X36417Y54134D01*
X9843Y25118D02*
X13307Y21654D01*
X18701D01*
X9843Y35118D02*
X14449Y30512D01*
X18701D01*
X9843Y55118D02*
X13780Y51181D01*
X18701D01*
X9843Y75118D02*
X14095Y70866D01*
X18701D01*
X9843Y95118D02*
X14410Y90551D01*
X18701D01*
X63976Y69882D02*
X66929D01*
X121063Y24606D02*
X125295D01*
X105020Y28543D02*
X108957Y24606D01*
X99410Y28543D02*
X105020D01*
X116142Y42323D02*
X118110Y40354D01*
X115157Y42323D02*
X116142D01*
X112205D02*
X115157D01*
X123031Y62008D02*
X123228Y61811D01*
Y56299D02*
Y61811D01*
X126969Y59055D02*
Y62008D01*
X112205Y69882D02*
X115157Y66929D01*
X88386Y105512D02*
X88583Y105315D01*
X40551Y105512D02*
X88386D01*
X79724Y96457D02*
X88583Y105315D01*
X64272Y95177D02*
X66929Y92520D01*
X64272Y95177D02*
Y99410D01*
X42323Y94488D02*
X43012D01*
X47933Y99410D01*
X35433Y100394D02*
X40551Y105512D01*
X79724Y94488D02*
Y96457D01*
Y89567D02*
Y94488D01*
Y89567D02*
X80673Y88618D01*
X35433Y94488D02*
Y100394D01*
X40354Y54134D02*
X43307D01*
X36417Y46260D02*
X39567D01*
X33465Y60039D02*
X36417Y57087D01*
Y54134D02*
Y57087D01*
X33465Y79724D02*
Y92520D01*
Y79724D02*
X36417Y76772D01*
Y74803D02*
Y76772D01*
X39567Y50000D02*
X39764Y50197D01*
X44291D01*
X39567Y42520D02*
X43504D01*
X44291Y43307D01*
X39567Y22835D02*
X43504D01*
X44291Y23622D01*
X39567Y30315D02*
X39764Y30512D01*
X44291D01*
X39370Y34449D02*
X42323D01*
X35433Y28543D02*
Y34449D01*
Y28543D02*
X37402Y26575D01*
X39567D01*
X33465Y92520D02*
X35433Y94488D01*
X40354Y74803D02*
X43307D01*
X37402Y66929D02*
X39567D01*
X39370Y94488D02*
X42323D01*
X36417Y86614D02*
X39567D01*
X44094Y63189D02*
X44291Y62992D01*
X39567Y63189D02*
X44094D01*
X43504Y70669D02*
X44291Y69882D01*
X39567Y70669D02*
X43504D01*
X44094Y82874D02*
X44291Y82677D01*
X39567Y82874D02*
X44094D01*
X43504Y90354D02*
X44291Y89567D01*
X39567Y90354D02*
X43504D01*
X25787Y82874D02*
X29331D01*
X24606Y66929D02*
X29331D01*
X24606Y70866D02*
X24803Y70669D01*
X29331D01*
X25787Y63189D02*
X29331D01*
X25787Y42520D02*
X29331D01*
X24606Y51181D02*
X25787Y50000D01*
X29331D01*
X24606Y21654D02*
X25787Y22835D01*
X29331D01*
X24606Y30512D02*
X24803Y30315D01*
X29331D01*
X24606Y86614D02*
X29331D01*
X24606Y90551D02*
X24803Y90354D01*
X29331D01*
X137795Y41339D02*
X138779Y42323D01*
X134843Y41339D02*
X137795D01*
X138779Y42323D02*
X142717D01*
X140748Y69882D02*
X142717Y67913D01*
X138779Y69882D02*
X140748D01*
X142717Y42323D02*
X142913Y42520D01*
X145315D01*
X125000Y50197D02*
X128937D01*
X123228Y48425D02*
X125000Y50197D01*
X123228Y46063D02*
Y48425D01*
X128937Y50197D02*
X130709Y48425D01*
Y46063D02*
Y48425D01*
X126969Y42323D02*
Y46063D01*
X130709D02*
X131496Y45276D01*
X134843D01*
X140148Y45660D02*
X140889D01*
X139764Y45276D02*
X140148Y45660D01*
X140899Y45669D02*
X145315D01*
X140889Y45660D02*
X140899Y45669D01*
X134843Y45276D02*
X139764D01*
X80673Y85614D02*
Y88618D01*
X82625Y83661D02*
X83661D01*
X80673Y85614D02*
X82625Y83661D01*
X83661D02*
X87598D01*
X115157Y56102D02*
X117126Y58071D01*
X114173Y56102D02*
X115157D01*
X115157Y60039D02*
X117126Y58071D01*
X114173Y60039D02*
X115157D01*
X104331Y79724D02*
X108268D01*
X114173Y65945D02*
X115157Y66929D01*
X112205Y65945D02*
X114173D01*
X101575Y79724D02*
X104331D01*
X71850Y39370D02*
X74803Y36417D01*
X78740D01*
X101575Y75787D02*
X103347D01*
X104331Y76772D01*
Y79724D01*
X95472D02*
X97244D01*
X57087Y58071D02*
X60039D01*
D57*
X151575Y49606D02*
Y60630D01*
X147638Y64567D02*
X151575Y60630D01*
X145315Y64567D02*
X147638D01*
X145905Y46260D02*
X148228D01*
X151575Y49606D01*
X78051Y28543D02*
X82677D01*
X77362Y29232D02*
X78051Y28543D01*
X81693Y25591D02*
X82677Y24606D01*
X71949Y25591D02*
X81693D01*
X68307Y21949D02*
X71949Y25591D01*
X82677Y24606D02*
X88583D01*
X108268Y83661D02*
X114173D01*
X112205Y93504D02*
X114173Y95472D01*
X115157D01*
X112205Y98425D02*
X115157D01*
X128937Y65945D02*
Y81693D01*
X115157Y95472D02*
X128937Y81693D01*
X115157Y98425D02*
X130905Y82677D01*
Y67126D02*
Y82677D01*
Y67126D02*
X139961Y58071D01*
X145315D01*
X128937Y65945D02*
X138779Y56102D01*
X118110Y46260D02*
Y50197D01*
X108268Y43307D02*
X110236Y45276D01*
X108268Y42323D02*
Y43307D01*
X116142Y53150D02*
X119095D01*
X111221D02*
X116142D01*
X110236Y45276D02*
X114173D01*
X115157Y46260D01*
Y52165D01*
X116142Y53150D01*
Y53150D01*
X122047Y64961D02*
X123031D01*
X120079Y62992D02*
X122047Y64961D01*
X120079Y54134D02*
Y62992D01*
X119095Y53150D02*
X120079Y54134D01*
X110236D02*
X111221Y53150D01*
X110236Y54134D02*
Y56102D01*
X108268Y65945D02*
Y69882D01*
X118110Y64961D02*
Y79724D01*
X114173Y83661D02*
X118110Y79724D01*
X116142Y62992D02*
X118110Y64961D01*
X112205Y62992D02*
X116142D01*
X83661Y88583D02*
X85630Y90551D01*
X83661Y87598D02*
Y88583D01*
X85630Y90551D02*
X87598Y88583D01*
Y87598D02*
Y88583D01*
X73819Y80709D02*
X75787Y82677D01*
Y85630D01*
X75787Y85630D01*
Y89567D01*
X70866Y77756D02*
X73819Y80709D01*
X68701Y77756D02*
X70866D01*
X66929Y86614D02*
X68701Y84842D01*
Y83661D02*
Y84842D01*
X66929Y86614D02*
X71850D01*
X77756Y92520D02*
X79724Y94488D01*
X71850Y92520D02*
X77756D01*
X78740Y88583D02*
X79724Y89567D01*
X78740Y83858D02*
Y88583D01*
Y83858D02*
X78937Y83661D01*
X145315Y45669D02*
X145905Y46260D01*
X138779Y48228D02*
X140748Y50197D01*
X145315D01*
X138779Y56102D02*
X142717Y52165D01*
X145315D01*
X149606Y55118D02*
Y57087D01*
X148622Y58071D02*
X149606Y57087D01*
X145315Y58071D02*
X148622D01*
X148622Y54134D02*
X149606Y55118D01*
X145315Y54134D02*
X148622D01*
X138779Y56102D02*
X145315D01*
X138779Y63976D02*
X140748Y62008D01*
X145315D01*
X108268Y69882D02*
Y70866D01*
X111221Y73819D01*
X112205D01*
X110639Y78050D02*
Y78159D01*
X109942Y77353D02*
X110639Y78050D01*
X109833Y77353D02*
X109942D01*
X110639Y78159D02*
X112205Y79724D01*
X108268Y75787D02*
X109833Y77353D01*
X107087Y69882D02*
X108268D01*
X104331D02*
X107087D01*
X123031Y62008D02*
Y64961D01*
X110236Y61024D02*
X112205Y62992D01*
X110236Y60039D02*
Y61024D01*
X82677Y36417D02*
Y36526D01*
X74803Y41339D02*
X77353Y38789D01*
X80414D01*
X82677Y36526D01*
X72835Y43307D02*
X74803Y41339D01*
X71850Y43307D02*
X72835D01*
X63976Y58071D02*
X64748Y57299D01*
X66929D01*
X70866Y69882D02*
X71850Y70866D01*
X75787D01*
X76772Y69882D01*
D58*
X90551Y92520D02*
X96457Y98425D01*
X90551Y78740D02*
Y92520D01*
X96457Y98425D02*
X106299D01*
X97829Y96845D02*
X102958D01*
X91951Y79702D02*
Y90967D01*
X97829Y96845D01*
X102958D02*
X106299Y93504D01*
X88976Y69882D02*
Y75984D01*
X85630Y79331D02*
Y81693D01*
Y79331D02*
X88976Y75984D01*
X61917Y42232D02*
Y43807D01*
X50197Y30512D02*
X61917Y42232D01*
X93504Y36417D02*
X95472Y34449D01*
X92520Y36417D02*
X93504D01*
X90551Y38386D02*
X92520Y36417D01*
X87402Y35236D02*
Y42323D01*
X85630Y33465D02*
X87402Y35236D01*
X85630Y31496D02*
Y33465D01*
X88583Y30512D02*
X88976Y30906D01*
X82677Y28543D02*
X85630Y31496D01*
X90551Y38386D02*
Y42323D01*
X50197Y23622D02*
X67948Y41373D01*
Y47081D01*
X82677Y36417D02*
X85827Y39567D01*
Y42323D01*
X99410Y81693D02*
X104331Y86614D01*
X99410Y73819D02*
Y81693D01*
X100000Y69882D02*
Y72430D01*
X100990Y73420D01*
Y75203D01*
X98425Y72835D02*
X99410Y73819D01*
X98425Y69882D02*
Y72835D01*
X90551Y78740D02*
X92126Y77165D01*
X62598Y75591D02*
Y80315D01*
X65354Y72835D02*
X77756D01*
X62598Y75591D02*
X65354Y72835D01*
X64173Y76378D02*
X66316Y74235D01*
X78904D01*
X64173Y76378D02*
Y79528D01*
X62598Y80315D02*
X65945Y83661D01*
X64173Y79528D02*
X66339Y81693D01*
X65945Y78740D02*
X66929Y79724D01*
X65945Y76772D02*
X66929Y75787D01*
X65945Y76772D02*
Y78740D01*
X66929Y75787D02*
X79331D01*
X66339Y81693D02*
X68701D01*
X66929Y79724D02*
X68701D01*
X80512D02*
X85827Y74410D01*
X78937Y79724D02*
X80512D01*
X85827Y69882D02*
Y74410D01*
X87402Y69882D02*
Y75197D01*
X78937Y81693D02*
X80905D01*
X87402Y75197D01*
X78937Y77756D02*
X80118D01*
X84252Y69882D02*
Y73622D01*
X80118Y77756D02*
X84252Y73622D01*
X81096Y69888D02*
Y72042D01*
X82677Y69882D02*
Y72441D01*
X79331Y75787D02*
X82677Y72441D01*
X78904Y74235D02*
X81096Y72042D01*
Y69888D02*
X81102Y69882D01*
X90551D02*
Y76378D01*
X87598Y79331D02*
Y83661D01*
Y79331D02*
X90551Y76378D01*
X92126Y69882D02*
Y77165D01*
X93701Y69882D02*
Y77953D01*
X91951Y79702D02*
X93701Y77953D01*
X73819Y52953D02*
X76772D01*
X67948Y47081D02*
X73819Y52953D01*
X74606Y51378D02*
X76772D01*
X71850Y43307D02*
Y48622D01*
X74606Y51378D01*
X72638Y54527D02*
X76772D01*
X61917Y43807D02*
X72638Y54527D01*
X64961Y53150D02*
X68898D01*
X71850Y56102D02*
X76772D01*
X68898Y53150D02*
X71850Y56102D01*
X70472Y57677D02*
X76772D01*
X60039Y55118D02*
X67913D01*
X70472Y57677D01*
X54134Y69882D02*
X59055Y64961D01*
X50197Y82677D02*
X54134Y78740D01*
Y69882D02*
Y78740D01*
X57087Y70866D02*
X61024Y66929D01*
X50197Y89567D02*
X57087Y82677D01*
Y70866D02*
Y82677D01*
X55118Y50197D02*
X60039Y55118D01*
X50197Y50197D02*
X55118D01*
X50197Y43307D02*
X55118D01*
X64961Y53150D01*
X95276Y38583D02*
X99410Y34449D01*
X101575Y42323D02*
X108268D01*
X109252Y50197D02*
X112205D01*
X108268Y51181D02*
X109252Y50197D01*
X108268Y51181D02*
Y53150D01*
X106890Y54527D02*
X108268Y53150D01*
X104331Y54527D02*
X106890D01*
X104331Y56102D02*
X110236D01*
X96622Y66698D02*
X96850Y66926D01*
Y69882D01*
X101575Y71063D02*
X103347Y72835D01*
X101575Y69882D02*
Y71063D01*
X103347Y72835D02*
X104331D01*
X107283Y75787D02*
X108268D01*
X104331Y72835D02*
X107283Y75787D01*
X100990Y75203D02*
X101575Y75787D01*
X104331Y67126D02*
X107087Y69882D01*
X107874Y65551D02*
X108268Y65945D01*
X104331Y65551D02*
X107874D01*
X107874Y57677D02*
X110236Y60039D01*
X104331Y57677D02*
X107874D01*
X95276Y38583D02*
Y42323D01*
X88976Y30906D02*
Y42323D01*
X50197Y62992D02*
X52362Y60827D01*
X50197Y69882D02*
X50197D01*
X65945Y83661D02*
X68701D01*
X83661D02*
X85630Y81693D01*
X96850Y75394D02*
X97244Y75787D01*
X96850Y69882D02*
Y75394D01*
X95260Y77740D02*
X97244Y79724D01*
X95276Y69882D02*
Y74176D01*
X95260Y74192D02*
X95276Y74176D01*
X95260Y74192D02*
Y77740D01*
X63976Y58071D02*
X65158Y59252D01*
X70866Y69882D02*
X71850Y68898D01*
X73819D01*
X75591Y67126D01*
X76772D01*
X61024Y66929D02*
X72857D01*
X74235Y65551D01*
X72846Y64961D02*
X73830Y63976D01*
X74235Y65551D02*
X76772D01*
X59055Y64961D02*
X72846D01*
X73830Y63976D02*
X76772D01*
X72563Y62992D02*
X73154Y62402D01*
X57087Y62992D02*
X72563D01*
X73154Y62402D02*
X76772D01*
X52362Y60827D02*
X76772D01*
X50197Y69882D02*
X57087Y62992D01*
X65158Y59252D02*
X76772D01*
X77756Y72835D02*
X79528Y71063D01*
Y69882D02*
Y71063D01*
D59*
X11811Y25118D02*
D03*
Y35118D02*
D03*
Y55118D02*
D03*
Y65118D02*
D03*
Y75118D02*
D03*
Y85118D02*
D03*
Y45118D02*
D03*
Y15118D02*
D03*
D60*
Y95118D02*
D03*
D61*
X31496Y17717D02*
D03*
X30699Y56693D02*
D03*
Y76772D02*
D03*
X30709Y94488D02*
D03*
X24606Y46260D02*
D03*
X24606Y26575D02*
D03*
X30709Y36614D02*
D03*
X94488Y80709D02*
D03*
X121063Y24606D02*
D03*
X126969Y59055D02*
D03*
X104331Y79724D02*
D03*
X142717Y42323D02*
D03*
X42323Y94488D02*
D03*
X43307Y54134D02*
D03*
Y74803D02*
D03*
X42323Y34449D02*
D03*
X24606Y86614D02*
D03*
Y66929D02*
D03*
X104331Y76772D02*
D03*
X94488Y83661D02*
D03*
X142717Y67913D02*
D03*
X126969Y42323D02*
D03*
X57087Y58071D02*
D03*
X63976Y69882D02*
D03*
D62*
X94882Y51772D02*
D03*
X90551D02*
D03*
X86221D02*
D03*
X94882Y56102D02*
D03*
X90551D02*
D03*
X86221D02*
D03*
X94882Y60433D02*
D03*
X90551D02*
D03*
X86221D02*
D03*
D63*
X95472Y34449D02*
D03*
X115157Y90551D02*
D03*
X108268Y83661D02*
D03*
X115157Y101378D02*
D03*
Y66929D02*
D03*
X85630Y90551D02*
D03*
X75787Y85630D02*
D03*
X76772Y69882D02*
D03*
X96622Y66698D02*
D03*
X117126Y58071D02*
D03*
X104331Y69882D02*
D03*
X74803Y36417D02*
D03*
Y41339D02*
D03*
X123031Y64961D02*
D03*
X92520Y29528D02*
D03*
X115157Y42323D02*
D03*
X66929Y57299D02*
D03*
M02*
